<?xml version="1.0" encoding="utf-8"?>
<!-- Generator: Adobe Illustrator 23.0.3, SVG Export Plug-In . SVG Version: 6.00 Build 0)  -->
<svg version="1.1" id="Слой_1" xmlns:sketch="http://www.bohemiancoding.com/sketch/ns"
	 xmlns="http://www.w3.org/2000/svg" xmlns:xlink="http://www.w3.org/1999/xlink" x="0px" y="0px" viewBox="0 0 22.8 23.7"
	 style="enable-background:new 0 0 22.8 23.7;" xml:space="preserve">
<style type="text/css">
	.st0{fill-rule:evenodd;clip-rule:evenodd;fill:#666D89;}
</style>
<g id="Page-1">
	<g id="Core" transform="translate(-378.000000, -252.000000)">
		<g id="google-plus" transform="translate(378.500000, 252.000000)">
			<path id="Shape" class="st0" d="M19.3,10V7h-2v3h-3v2h3v3h2v-3h3v-2H19.3L19.3,10z M11.6,13.4l-1.1-0.8c-0.4-0.3-0.8-0.7-0.8-1.4
				s0.5-1.3,1-1.6c1.3-1,2.6-2.1,2.6-4.3c0-2.1-1.3-3.3-2-3.9H13L14.2,0H8C3.6,0,1.4,2.8,1.4,5.8c0,2.3,1.8,4.8,5,4.8h0.8
				c-0.1,0.3-0.4,0.8-0.4,1.3c0,1,0.4,1.4,0.9,2c-1.4,0.1-4,0.4-5.9,1.6c-1.8,1.1-2.3,2.6-2.3,3.7c0,2.3,2.1,4.5,6.6,4.5
				c5.4,0,8-3,8-5.9C14.1,15.7,13,14.6,11.6,13.4L11.6,13.4z M4,4.3c0-2.2,1.3-3.2,2.7-3.2c2.6,0,4,3.5,4,5.5c0,2.6-2.1,3.1-2.9,3.1
				C5.3,9.7,4,6.6,4,4.3L4,4.3z M7.6,22.3c-3.3,0-5.4-1.5-5.4-3.7s2-2.9,2.6-3.2c1.3-0.4,3-0.5,3.3-0.5h0.7c2.4,1.7,3.4,2.4,3.4,4
				C12.2,20.8,10.3,22.3,7.6,22.3L7.6,22.3z"/>
		</g>
	</g>
</g>
</svg>
