<?xml version="1.0" encoding="utf-8"?>
<!-- Generator: Adobe Illustrator 23.0.3, SVG Export Plug-In . SVG Version: 6.00 Build 0)  -->
<svg version="1.1" id="Layer_1" xmlns="http://www.w3.org/2000/svg" xmlns:xlink="http://www.w3.org/1999/xlink" x="0px" y="0px"
	 viewBox="0 0 90.1 86.3" style="enable-background:new 0 0 90.1 86.3;" xml:space="preserve">
<style type="text/css">
	.st0{fill:#666D89;}
</style>
<g>
	<path class="st0" d="M90.1,53v33.3H70.8v-31c0-7.8-2.8-13.1-9.8-13.1c-5.3,0-8.5,3.6-9.9,7.1c-0.5,1.2-0.6,3-0.6,4.7v32.4H31.2
		c0,0,0.3-52.6,0-58h19.3v8.2c0,0.1-0.1,0.1-0.1,0.2h0.1v-0.2c2.6-3.9,7.1-9.6,17.4-9.6C80.6,26.8,90.1,35.1,90.1,53 M11,0.2
		c-6.6,0-10.9,4.3-10.9,10c0,5.6,4.2,10,10.7,10h0.1c6.7,0,10.9-4.5,10.9-10C21.6,4.6,17.6,0.2,11,0.2 M1.2,86.2h19.3v-58H1.2V86.2z
		"/>
</g>
</svg>
