<?xml version="1.0" encoding="utf-8"?>
<!-- Generator: Adobe Illustrator 23.0.3, SVG Export Plug-In . SVG Version: 6.00 Build 0)  -->
<svg version="1.1" id="Слой_1" xmlns="http://www.w3.org/2000/svg" xmlns:xlink="http://www.w3.org/1999/xlink" x="0px" y="0px"
	 viewBox="0 0 84.3 90.9" style="enable-background:new 0 0 84.3 90.9;" xml:space="preserve">
<style type="text/css">
	.st0{fill:#F0D8D9;}
</style>
<path class="st0" d="M2.2,81.2c1.7,2.1,6.1,7,11.3,8.9l0.3,0.1h0.1C17.7,91,43.4,90,64.2,66.5c21-23.7,20.3-51.8,18.8-54.9
	c-2.5-4.9-8-8.7-10.2-10.1c-0.7-0.4-1.5-0.7-2.3-0.9c-3.3-0.7-6.3,1.2-8.3,2.5l-0.9,0.6c-3.1,1.7-6.1,19.4-6,20.8
	c0.2,2.4,2.4,4.6,7.5,9.2c0.8,0.8,1.2,2,0.8,3.1c-2.2,5.7-6.9,12.8-10.8,17.1c-3.6,4-10.8,10.6-16.7,13.9c-1.1,0.6-2.3,0.4-3.2-0.4
	c-4.5-3.9-6.8-5.8-8.9-6.2l-1.1-0.1c-1.4,0.1-18.6,5.1-20,8.4l-0.5,1C1.2,73-0.9,77.5,2.2,81.2z"/>
</svg>
