<?xml version="1.0" encoding="utf-8"?>
<!-- Generator: Adobe Illustrator 23.0.3, SVG Export Plug-In . SVG Version: 6.00 Build 0)  -->
<svg version="1.1" id="Слой_1" xmlns="http://www.w3.org/2000/svg" xmlns:xlink="http://www.w3.org/1999/xlink" x="0px" y="0px"
	 viewBox="0 0 229.4 398" style="enable-background: new 0 0 229.4 398;" xml:space="preserve">
  <style type="text/css">
	.st0{fill:#F0D8D9;}
  </style>
<g>
	<path class="st0 figure" d="M227.5,114.8C227.5,52.4,177,1.9,114.7,1.9C52.4,1.9,1.8,52.4,1.8,114.8c0,0.1,0,0.2,0,0.2h0
		c-0.1,78,73,240.9,112.9,280.7c37.5-37.5,111-199.7,112.8-277.9c0-0.5,0-1.1,0-1.6c0-0.4,0-0.8,0-1.2c0,0,0,0,0-0.1
		C227.5,114.9,227.5,114.8,227.5,114.8z M114.7,170c-30.5,0-55.2-24.7-55.2-55.2s24.7-55.2,55.2-55.2s55.2,24.7,55.2,55.2
		S145.2,170,114.7,170z"/>
</g>
</svg>
